<svg width="14" height="16" viewBox="0 0 14 16" fill="none" xmlns="http://www.w3.org/2000/svg">
<path fill-rule="evenodd" clip-rule="evenodd" d="M9.39501 0.553002C9.33162 0.426038 9.24194 0.314017 9.13193 0.224385C9.02191 0.134753 8.89408 0.0695624 8.75692 0.0331457C8.61977 -0.00327108 8.47644 -0.0100798 8.33645 0.0131717C8.19646 0.0364232 8.06302 0.0892025 7.945 0.168002C7.6 0.398002 7.33101 0.726002 7.12301 1.048C6.90901 1.378 6.72001 1.761 6.55301 2.164C6.21901 2.968 5.93901 3.932 5.71301 4.898C5.43969 6.07849 5.23501 7.27383 5.10001 8.478C4.69314 8.2157 4.36622 7.84658 4.15501 7.411C3.82701 6.731 3.757 5.877 3.757 4.757C3.75696 4.55925 3.69829 4.36595 3.58841 4.20154C3.47852 4.03713 3.32236 3.90899 3.13966 3.83332C2.95696 3.75765 2.75593 3.73785 2.56197 3.77642C2.36802 3.81499 2.18986 3.91019 2.05001 4.05C1.39917 4.69944 0.883032 5.47104 0.531232 6.32051C0.179433 7.16998 -0.00109811 8.08057 5.02513e-06 9C8.80858e-05 10.1511 0.284051 11.2845 0.826743 12.2996C1.36944 13.3148 2.15411 14.1805 3.11125 14.8199C4.0684 15.4594 5.16849 15.853 6.31407 15.9658C7.45965 16.0786 8.61536 15.9072 9.67886 15.4666C10.7423 15.0261 11.6808 14.3301 12.4111 13.4403C13.1413 12.5505 13.6409 11.4943 13.8655 10.3653C14.0901 9.23627 14.0328 8.06931 13.6987 6.96774C13.3645 5.86618 12.7639 4.86401 11.95 4.05C11.358 3.459 10.97 3.065 10.602 2.583C10.239 2.107 9.87801 1.52 9.39501 0.553002V0.553002ZM9.12 13.12C8.70046 13.539 8.16615 13.8243 7.58455 13.9399C7.00296 14.0554 6.40016 13.996 5.85231 13.7691C5.30446 13.5423 4.83612 13.1582 4.50644 12.6653C4.17676 12.1725 4.00053 11.593 4.00001 11C4.00001 11 4.87901 11.5 6.50001 11.5C6.50001 10.5 7.00001 7.5 7.75001 7C8.25001 8 8.53601 8.293 9.12101 8.879C9.40004 9.15718 9.62135 9.48778 9.7722 9.85177C9.92305 10.2158 10.0005 10.606 10 11C10.0005 11.394 9.92305 11.7842 9.7722 12.1482C9.62135 12.5122 9.40004 12.8428 9.12101 13.121L9.12 13.12Z" fill="#9B40FC"/>
</svg>
