<svg width="21" height="20" viewBox="0 0 21 20" fill="none" xmlns="http://www.w3.org/2000/svg">
<path d="M8.96842 1.0275C8.96842 0.46003 9.43275 0 10.0056 0H12.0777C12.6505 0 13.1148 0.46003 13.1148 1.0275V8.54045C13.1148 10.4024 12.548 11.8438 11.4143 12.8646C10.2807 13.8782 8.65782 14.3851 6.54577 14.3851C4.43373 14.3851 2.81087 13.8926 1.67721 12.9077C0.55907 11.9157 0 10.4887 0 8.62672V1.0275C0 0.460028 0.464342 0 1.03714 0H3.12095C3.69374 0 4.15809 0.46003 4.15809 1.0275V8.32479C4.15809 9.31685 4.35609 10.0429 4.75209 10.503C5.15586 10.9631 5.76928 11.1932 6.59237 11.1932C7.41543 11.1932 8.01723 10.9667 8.39769 10.5138C8.77818 10.0609 8.96842 9.32764 8.96842 8.314V1.0275Z" fill="url(#paint0_linear_114_26)"/>
<path d="M20.5729 13.1634C20.5729 13.7309 20.1086 14.191 19.5358 14.191H17.4519C16.8791 14.191 16.4148 13.7309 16.4148 13.1634V1.0275C16.4148 0.46003 16.8791 0 17.4519 0H19.5358C20.1086 0 20.5729 0.46003 20.5729 1.0275V13.1634Z" fill="url(#paint1_linear_114_26)"/>
<path d="M6.74379e-07 17.753C6.74379e-07 17.1855 0.464342 16.7255 1.03714 16.7255H19.7056C20.2784 16.7255 20.7427 17.1855 20.7427 17.753V19.0192C20.7427 19.5867 20.2784 20.0467 19.7056 20.0467H1.03714C0.464342 20.0467 0 19.5867 0 19.0192L6.74379e-07 17.753Z" fill="url(#paint2_linear_114_26)"/>
<defs>
<linearGradient id="paint0_linear_114_26" x1="-1.10683e-06" y1="2.05729e-07" x2="20.5492" y2="20.7418" gradientUnits="userSpaceOnUse">
<stop stop-color="#BF66FF"/>
<stop offset="0.510417" stop-color="#6248FF"/>
<stop offset="1" stop-color="#00DDEB"/>
</linearGradient>
<linearGradient id="paint1_linear_114_26" x1="0.0894421" y1="-2.86094e-07" x2="20.6386" y2="20.7418" gradientUnits="userSpaceOnUse">
<stop stop-color="#BF66FF"/>
<stop offset="0.510417" stop-color="#6248FF"/>
<stop offset="1" stop-color="#00DDEB"/>
</linearGradient>
<linearGradient id="paint2_linear_114_26" x1="-2.88745e-07" y1="0.0467264" x2="20.5492" y2="20.7886" gradientUnits="userSpaceOnUse">
<stop stop-color="#BF66FF"/>
<stop offset="0.510417" stop-color="#6248FF"/>
<stop offset="1" stop-color="#00DDEB"/>
</linearGradient>
</defs>
</svg>
